<?xml version="1.0" encoding="UTF-8" standalone="no"?>
<svg viewBox="0 0 50 50"
 xmlns="http://www.w3.org/2000/svg" xmlns:xlink="http://www.w3.org/1999/xlink" version="1.2" baseProfile="tiny">
<title>Qt SVG Document</title>
<desc>Generated with Qt</desc>
<defs>
</defs>
<g fill="none" stroke="black" stroke-width="1" fill-rule="evenodd" stroke-linecap="square" stroke-linejoin="bevel" >

<g fill="#000000" fill-opacity="1" stroke="none" transform="matrix(2.27273,0,0,2.27273,50,50)"
font-family="LXGW WenKai" font-size="10" font-weight="700" font-style="normal" 
opacity="0.00100002" >
<rect x="-22" y="-22" width="22" height="22"/>
</g>

<g fill="#2b4254" fill-opacity="1" stroke="none" transform="matrix(2.27273,0,0,2.27273,50,50)"
font-family="LXGW WenKai" font-size="10" font-weight="700" font-style="normal" 
>
<path vector-effect="none" fill-rule="nonzero" d="M-11,-20 C-15.9705,-20 -20,-15.9706 -20,-11 C-20,-6.02944 -15.9705,-2 -11,-2 C-6.02952,-2 -2,-6.02944 -2,-11 C-2,-15.9706 -6.02952,-20 -11,-20 M-11,-18.875 C-6.65081,-18.875 -3.125,-15.3493 -3.125,-11 C-3.125,-6.65077 -6.65081,-3.125 -11,-3.125 C-15.3492,-3.125 -18.875,-6.65077 -18.875,-11 C-18.875,-15.3493 -15.3492,-18.875 -11,-18.875 M-11,-18.875"/>
</g>

<g fill="#a3be8c" fill-opacity="1" stroke="none" transform="matrix(2.27273,0,0,2.27273,50,50)"
font-family="LXGW WenKai" font-size="10" font-weight="700" font-style="normal" 
opacity="0.7" >
<path vector-effect="none" fill-rule="evenodd" d="M-18.875,-11.0788 C-18.875,-15.3845 -15.3492,-18.875 -11,-18.875 C-6.65076,-18.875 -3.12501,-15.3845 -3.12501,-11.0788 L-3.12501,-10.9213 C-3.12501,-6.6155 -6.65076,-3.12501 -11,-3.12501 C-15.3492,-3.12501 -18.875,-6.6155 -18.875,-10.9213 L-18.875,-11.0788"/>
</g>

<g fill="#ffffff" fill-opacity="1" stroke="none" transform="matrix(2.27273,0,0,2.27273,50,50)"
font-family="LXGW WenKai" font-size="10" font-weight="700" font-style="normal" 
opacity="0.8" >
<path vector-effect="none" fill-rule="evenodd" d="M-16,-11 C-16,-11.5523 -15.5523,-12 -15,-12 L-7,-12 C-6.44772,-12 -6,-11.5523 -6,-11 C-6,-10.4477 -6.44772,-10 -7,-10 L-15,-10 C-15.5523,-10 -16,-10.4477 -16,-11 "/>
</g>

<g fill="#ffffff" fill-opacity="1" stroke="none" transform="matrix(0,2.27273,-2.27273,0,50,50)"
font-family="LXGW WenKai" font-size="10" font-weight="700" font-style="normal" 
opacity="0.8" >
<path vector-effect="none" fill-rule="evenodd" d="M-16,11 C-16,10.4477 -15.5523,10 -15,10 L-7,10 C-6.44772,10 -6,10.4477 -6,11 C-6,11.5523 -6.44772,12 -7,12 L-15,12 C-15.5523,12 -16,11.5523 -16,11 "/>
</g>

<g fill="none" stroke="#000000" stroke-opacity="1" stroke-width="1" stroke-linecap="square" stroke-linejoin="bevel" transform="matrix(1,0,0,1,0,0)"
font-family="LXGW WenKai" font-size="10" font-weight="700" font-style="normal" 
>
</g>
</g>
</svg>
